# xmcd
#
# Track frame offsets:
#  150
#  64104
#  124494
#  183746
#  204142
#  213989
#  232094
#
# Disc length: 3955 seconds
#
# Revision: 0
# Processed by: cddbd v1.5PL3 Copyright (c) Steve Scherf et al.
# Submitted via: AltoMP3_Maker 3.0
#
DISCID=690f7107
DTITLE=Joe Frank - Misc
DYEAR=1900
DGENRE=
TTITLE0=soul mate-soul mate
TTITLE1=film-decline of spengler
TTITLE2=philosophy-predator
TTITLE3=it-hot line
TTITLE4=god-great lives
TTITLE5=cash-where will it end
TTITLE6=warheads-the other side
EXTD=
EXTT0=
EXTT1=
EXTT2=
EXTT3=
EXTT4=
EXTT5=
EXTT6=
PLAYORDER=
